<svg width="161" height="50" viewBox="0 0 161 50" fill="none" xmlns="http://www.w3.org/2000/svg">
<path d="M0.1 21H7.45C13.33 21 17.26 16.86 17.26 10.68C17.26 4.53 13.33 0.419999 7.45 0.419999H0.1V21ZM2.8 18.6V2.82H7.45C11.71 2.82 14.56 5.97 14.56 10.68C14.56 15.42 11.71 18.6 7.45 18.6H2.8ZM20.432 21H23.132V11.16H27.392L33.512 21H36.692L30.542 11.1C33.422 10.74 35.372 8.61 35.372 5.79C35.372 2.58 32.942 0.419999 29.342 0.419999H20.432V21ZM23.132 8.76V2.82H29.342C31.322 2.82 32.672 4.02 32.672 5.79C32.672 7.56 31.322 8.76 29.342 8.76H23.132ZM46.551 21.3C51.411 21.3 54.651 18.09 54.651 13.29V0.419999H51.951V13.29C51.951 16.65 49.791 18.9 46.551 18.9C43.281 18.9 41.091 16.65 41.091 13.29V0.419999H38.391V13.29C38.391 18.09 41.661 21.3 46.551 21.3ZM58.8402 21H61.5402V11.16H72.3402V21H75.0402V0.419999H72.3402V8.76H61.5402V0.419999H58.8402V21ZM78.9309 21H82.2309V17.7H78.9309V21ZM86.1449 21H88.8449V0.419999H86.1449V21ZM93.6449 21H96.3449V4.2L107.865 21H110.865V0.419999H108.165V17.25L96.6149 0.419999H93.6449V21ZM24.303 50H27.003V31.82H33.363V29.42H17.943V31.82H24.303V50ZM48.8013 50H51.6813L43.2213 29.42H40.4613L32.0013 50H34.8813L37.2513 44.03H46.4312L48.8013 50ZM38.2113 41.63L41.8413 32.51L45.4713 41.63H38.2113ZM53.9184 50H56.6184V40.16H60.8784L66.9984 50H70.1784L64.0284 40.1C66.9084 39.74 68.8584 37.61 68.8584 34.79C68.8584 31.58 66.4284 29.42 62.8284 29.42H53.9184V50ZM56.6184 37.76V31.82H62.8284C64.8084 31.82 66.1584 33.02 66.1584 34.79C66.1584 36.56 64.8084 37.76 62.8284 37.76H56.6184ZM85.8032 50H88.6832L80.2232 29.42H77.4632L69.0032 50H71.8832L74.2532 44.03H83.4332L85.8032 50ZM75.2132 41.63L78.8432 32.51L82.4732 41.63H75.2132ZM90.9203 50H93.6203V40.16H102.83V37.76H93.6203V31.82H104.21V29.42H90.9203V50ZM107.209 50H114.559C120.439 50 124.369 45.86 124.369 39.68C124.369 33.53 120.439 29.42 114.559 29.42H107.209V50ZM109.909 47.6V31.82H114.559C118.819 31.82 121.669 34.97 121.669 39.68C121.669 44.42 118.819 47.6 114.559 47.6H109.909ZM127.541 50H140.831V47.6H130.241V40.16H139.751V37.76H130.241V31.82H140.831V29.42H127.541V50ZM143.83 50H146.53V40.16H150.79L156.91 50H160.09L153.94 40.1C156.82 39.74 158.77 37.61 158.77 34.79C158.77 31.58 156.34 29.42 152.74 29.42H143.83V50ZM146.53 37.76V31.82H152.74C154.72 31.82 156.07 33.02 156.07 34.79C156.07 36.56 154.72 37.76 152.74 37.76H146.53Z" fill="#131313"/>
</svg>
